<?xml version="1.0" encoding="UTF-8" standalone="no"?>
<!DOCTYPE svg PUBLIC "-//W3C//DTD SVG 1.1//EN" "http://www.w3.org/Graphics/SVG/1.1/DTD/svg11.dtd">
<svg width="100%" height="100%" viewBox="0 0 2500 1660" version="1.1" xmlns="http://www.w3.org/2000/svg" xmlns:xlink="http://www.w3.org/1999/xlink" xml:space="preserve" xmlns:serif="http://www.serif.com/" style="fill-rule:evenodd;clip-rule:evenodd;stroke-linejoin:round;stroke-miterlimit:2;">
    <g transform="matrix(9.764706,0,0,9.764706,0.117647,0)">
        <path d="M250.392,0.004C246.442,0.131 247.691,1.269 239.156,3.369C230.537,5.49 220.009,4.839 210.728,8.732C183.022,20.352 177.463,60.065 152.276,74.291C133.449,84.925 114.454,85.773 97.377,91.125C86.154,94.644 73.877,101.861 63.709,110.624C55.817,117.427 55.611,123.41 47.364,131.944C38.544,141.071 12.307,132.098 0.416,146.068C4.246,149.941 5.926,151.026 13.474,150.021C11.912,152.983 2.699,155.479 4.502,159.837C6.4,164.422 28.672,167.53 48.919,155.307C58.348,149.614 65.859,141.408 80.543,139.45C99.546,136.917 121.438,141.074 143.437,144.247C140.175,153.973 133.626,160.441 128.38,168.187C126.755,169.937 131.643,170.133 137.219,169.076C147.249,166.596 154.477,164.598 162.047,160.192C171.347,154.778 172.757,140.899 184.167,137.895C190.524,147.667 207.816,149.975 218.545,142.159C209.13,139.494 206.528,119.454 209.706,110.624C212.716,102.264 215.691,88.894 218.723,77.844C221.978,65.978 223.178,51.021 227.117,44.976C233.044,35.882 239.592,32.759 245.277,27.631C250.963,22.502 256.167,17.511 255.996,5.776C255.941,1.996 253.986,-0.11 250.392,0.004Z" style="fill:rgb(149,149,149);fill-rule:nonzero;"/>
    </g>
    <g transform="matrix(9.764706,0,0,9.764706,0.117647,0)">
        <path d="M8.594,159C23.012,161.066 31.78,159 43.358,153.98C53.21,149.707 62.724,140.899 74.358,137.165C91.443,131.683 110.179,137.172 128.443,138.267C132.891,138.534 137.31,138.537 141.672,138.062C148.475,133.88 148.335,118.239 154.957,116.806C154.762,138.751 145.765,151.9 136.356,164.632C156.186,161.13 168.053,149.66 176.068,134.341C178.5,129.696 180.576,124.699 182.412,119.461C185.251,121.64 183.642,128.269 185.069,131.861C198.728,124.252 206.549,106.888 211.729,89.326C217.721,69.001 220.174,48.42 224.039,42.406C227.811,36.536 233.681,32.918 239.039,29.16C245.129,24.887 250.559,20.434 251.497,12.293C245.076,11.699 243.591,10.213 242.641,6.977C239.426,8.789 236.47,9.177 233.13,9.277C230.232,9.365 227.048,9.236 223.159,9.635C190.999,12.938 186.912,48.385 166.299,68.479C164.779,69.951 163.164,71.322 161.464,72.583C154.244,77.963 145.388,81.807 137.244,84.92C124.061,89.957 111.528,90.315 99.16,94.663C90.08,97.854 80.854,102.483 73.397,107.587C71.596,108.813 69.849,110.115 68.159,111.49C63.783,115.07 60.91,119.043 58.132,123.13C55.266,127.34 52.499,131.673 48.281,135.812C41.447,142.522 15.911,137.769 6.921,143.992C5.919,144.684 5.123,145.515 4.581,146.513C9.487,148.742 12.763,147.374 18.406,147.998C19.146,153.353 6.764,156.535 8.594,159.001L8.594,159ZM203.435,120.426C203.819,126.569 207.385,138.756 210.533,141.719C204.367,143.219 193.746,140.741 191.021,136.392C192.421,130.112 199.707,124.372 203.435,120.426Z" style="fill:white;fill-rule:nonzero;"/>
    </g>
    <g transform="matrix(9.764706,0,0,9.764706,0.117647,0)">
        <path d="M212.468,22.935C217.02,26.887 226.573,23.715 224.866,15.851C217.792,15.265 213.694,17.666 212.468,22.935ZM244.207,13.744C242.997,16.284 240.678,19.559 240.678,26.024C240.668,27.134 239.835,27.895 239.821,26.184C239.884,19.864 241.556,17.133 243.333,13.543C244.159,12.072 244.656,12.679 244.207,13.744Z" style="fill:rgb(149,149,149);fill-rule:nonzero;"/>
    </g>
    <g transform="matrix(9.764706,0,0,9.764706,0.117647,0)">
        <path d="M242.988,12.788C241.559,15.211 238.12,19.632 237.551,26.073C237.446,27.177 236.548,27.861 236.684,26.154C237.304,19.866 240.053,15.93 242.139,12.509C243.086,11.118 243.531,11.766 242.988,12.788ZM241.876,11.52C240.249,13.814 234.954,19.123 233.847,25.495C233.648,26.585 232.696,27.193 232.976,25.503C234.122,19.288 238.686,14.403 241.052,11.172C242.112,9.862 242.5,10.547 241.876,11.52ZM240.884,10.106C238.951,12.148 232.639,18.918 230.649,25.07C230.297,26.121 229.269,26.59 229.785,24.956C231.792,18.964 237.32,12.509 240.117,9.644C241.352,8.497 241.639,9.229 240.884,10.106Z" style="fill:rgb(149,149,149);fill-rule:nonzero;"/>
    </g>
</svg>
