<?xml version="1.0" encoding="UTF-8" standalone="no"?>
<!DOCTYPE svg PUBLIC "-//W3C//DTD SVG 1.1//EN" "http://www.w3.org/Graphics/SVG/1.1/DTD/svg11.dtd">
<svg width="100%" height="100%" viewBox="0 0 118 138" version="1.1" xmlns="http://www.w3.org/2000/svg" xmlns:xlink="http://www.w3.org/1999/xlink" xml:space="preserve" xmlns:serif="http://www.serif.com/" style="fill-rule:evenodd;clip-rule:evenodd;stroke-linejoin:round;stroke-miterlimit:2;">
    <g transform="matrix(1,0,0,1,-2,-1)">
        <path d="M24,71L24,138L38.999,138L38.999,85L69.998,85L77.756,71L24,71Z" style="fill:rgb(255,0,0);"/>
    </g>
    <g transform="matrix(1,0,0,1,-2,-1)">
        <path d="M24,2L38.999,2L38.999,53L82,53L82,2L98,2L98,138L82,138L82,67L24,67L24,2Z" style="fill:rgb(255,0,0);"/>
    </g>
    <g transform="matrix(1,0,0,1,-2,-1)">
        <rect x="104.002" y="2" width="14.998" height="136" style="fill:rgb(255,0,0);"/>
    </g>
    <g transform="matrix(1,0,0,1,-103.002156,-1)">
        <rect x="104.002" y="2" width="14.998" height="136" style="fill:rgb(255,0,0);"/>
    </g>
</svg>
