<?xml version="1.0" encoding="UTF-8" standalone="no"?>
<!DOCTYPE svg PUBLIC "-//W3C//DTD SVG 1.1//EN" "http://www.w3.org/Graphics/SVG/1.1/DTD/svg11.dtd">
<svg width="100%" height="100%" viewBox="0 0 36 36" version="1.1" xmlns="http://www.w3.org/2000/svg" xmlns:xlink="http://www.w3.org/1999/xlink" xml:space="preserve" xmlns:serif="http://www.serif.com/" style="fill-rule:evenodd;clip-rule:evenodd;stroke-linejoin:round;stroke-miterlimit:2;">
    <g transform="matrix(1,0,0,1,-2,-2)">
        <g transform="matrix(0.969242,0,0,0.919373,2.990432,3.076555)">
            <rect x="0" y="0" width="32.2" height="23.5"/>
        </g>
        <path d="M11.3,6.8C9.4,6.8 8.3,7.8 7.8,9.3C7.5,10 7.4,10.9 7.4,13.6C7.4,16.3 7.5,17.3 7.8,18C8.3,19.5 9.4,20.4 11.3,20.4C13.2,20.4 14.3,19.5 14.8,18C15,17.3 15.2,16.3 15.2,13.6C15.2,10.9 15,10 14.8,9.3C14.3,7.8 13.2,6.8 11.3,6.8Z" style="fill:white;fill-rule:nonzero;"/>
        <path d="M38,2L2,2L2,25.5L38,25.5L38,23.1C35.9,20.5 34.7,17.3 34.7,13.8C34.7,10.2 35.9,7 38,4.5L38,2ZM18,18.8C17,21.8 14.6,23.4 11.3,23.4C8,23.4 5.6,21.8 4.6,18.8C4.2,17.6 4.1,16.6 4.1,13.6C4.1,10.6 4.2,9.6 4.6,8.4C5.6,5.4 8,3.9 11.3,3.9C14.6,3.9 17,5.4 18,8.4C18.4,9.6 18.5,10.6 18.5,13.6C18.5,16.6 18.4,17.6 18,18.8ZM26.4,23.4C23.6,23.4 20.9,22.3 19.5,20.9C19.3,20.8 19.3,20.6 19.4,20.5L21.1,18.5C21.2,18.3 21.4,18.3 21.5,18.4C22.8,19.4 24.6,20.4 26.7,20.4C28.9,20.4 30.3,19.3 30.3,17.7C30.3,16.3 29.4,15.5 26.8,15.1L25.8,15C22.1,14.5 20.1,12.7 20.1,9.6C20.1,6.1 22.6,3.9 26.5,3.9C28.9,3.9 31.1,4.6 32.6,5.8C32.8,5.9 32.8,6 32.7,6.1L31.3,8.2C31.2,8.3 31.1,8.4 31,8.3C29.4,7.3 28,6.8 26.4,6.8C24.5,6.8 23.4,7.9 23.4,9.3C23.4,10.6 24.3,11.5 26.9,11.9L27.9,12C31.6,12.5 33.6,14.3 33.6,17.5C33.6,20.9 31.2,23.4 26.4,23.4Z" style="fill:white;fill-rule:nonzero;"/>
        <path d="M2.3,35.1C2.1,34.4 2,33.7 2,32.6C2,31.5 2.1,30.7 2.3,30.1C2.9,28.1 4.6,27.1 6.8,27.1C8.6,27.1 10,27.9 10.8,29.1C10.9,29.2 10.9,29.3 10.7,29.4L8.9,30.6C8.7,30.7 8.6,30.7 8.5,30.6C8.1,29.9 7.6,29.7 6.9,29.7C6.1,29.7 5.5,30 5.3,30.8C5.1,31.2 5.1,31.7 5.1,32.6C5.1,33.4 5.1,33.9 5.3,34.3C5.5,35.1 6.1,35.5 6.9,35.5C7.6,35.5 8.1,35.2 8.5,34.6C8.6,34.5 8.7,34.4 8.9,34.5L10.7,35.7C10.9,35.8 10.9,35.9 10.8,36C10,37.2 8.6,38 6.8,38C4.6,38 3,37 2.3,35.1Z" style="fill:white;fill-rule:nonzero;"/>
        <path d="M18,37.8C17.9,37.8 17.8,37.7 17.8,37.5L17.8,36.9C17.2,37.5 16.3,38 14.9,38C13.1,38 11.4,37 11.4,34.8C11.4,32.5 13.2,31.5 15.8,31.5L17.6,31.5C17.7,31.5 17.8,31.4 17.8,31.3L17.8,30.9C17.8,30 17.3,29.5 15.6,29.5C14.6,29.5 13.8,29.8 13.3,30.2C13.2,30.3 13.1,30.3 13,30.1L12,28.5C12,28.3 12,28.2 12.1,28.1C13,27.5 14.3,27.1 16,27.1C19.4,27.1 20.6,28.3 20.6,30.9L20.6,37.5C20.6,37.7 20.5,37.8 20.4,37.8L18,37.8ZM17.8,34.3L17.8,33.6C17.8,33.5 17.7,33.5 17.6,33.5L16.2,33.5C14.9,33.5 14.3,33.8 14.3,34.6C14.3,35.4 14.8,35.7 15.8,35.7C17.1,35.7 17.8,35.3 17.8,34.3Z" style="fill:white;fill-rule:nonzero;"/>
        <path d="M34.9,37.8C34.8,37.8 34.7,37.7 34.7,37.5L34.7,31.6C34.7,30.4 34.1,29.7 33.1,29.7C32,29.7 31.5,30.4 31.5,31.6L31.5,37.5C31.5,37.7 31.4,37.8 31.2,37.8L28.6,37.8C28.5,37.8 28.4,37.7 28.4,37.5L28.4,31.6C28.4,30.4 27.9,29.7 26.8,29.7C25.8,29.7 25.2,30.4 25.2,31.6L25.2,37.5C25.2,37.7 25.1,37.8 25,37.8L22.4,37.8C22.2,37.8 22.1,37.7 22.1,37.5L22.1,27.6C22.1,27.4 22.2,27.4 22.4,27.4L25,27.4C25.1,27.4 25.2,27.4 25.2,27.6L25.2,28.3C25.7,27.7 26.5,27.1 27.9,27.1C29.2,27.1 30.1,27.6 30.7,28.4C31.5,27.6 32.5,27.1 34,27.1C36.5,27.1 37.7,28.7 37.7,31L37.7,37.5C37.7,37.7 37.6,37.8 37.5,37.8L34.9,37.8Z" style="fill:white;fill-rule:nonzero;"/>
    </g>
</svg>
