<?xml version="1.0" encoding="UTF-8" standalone="no"?>
<!DOCTYPE svg PUBLIC "-//W3C//DTD SVG 1.1//EN" "http://www.w3.org/Graphics/SVG/1.1/DTD/svg11.dtd">
<svg width="100%" height="100%" viewBox="0 0 22 20" version="1.1" xmlns="http://www.w3.org/2000/svg" xmlns:xlink="http://www.w3.org/1999/xlink" xml:space="preserve" xmlns:serif="http://www.serif.com/" style="fill-rule:evenodd;clip-rule:evenodd;stroke-linejoin:round;stroke-miterlimit:2;">
    <g transform="matrix(1,0,0,1,-1,-2)">
        <path d="M10.166,21.902C7.845,21.538 5.564,20.42 4.008,18.885C3.476,18.36 3.439,18.308 3.456,18.098C3.488,17.707 3.43,17.714 6.989,17.714C10.531,17.714 10.698,17.729 11.429,18.101C11.735,18.256 11.995,18.475 12.511,19.008C13.452,19.98 13.991,20.227 15.023,20.158C15.639,20.116 16.114,19.934 16.6,19.553C18.125,18.356 18.125,15.932 16.6,14.735C16.078,14.325 15.642,14.167 14.933,14.13C13.932,14.077 13.374,14.347 12.458,15.325C12.049,15.762 11.799,15.971 11.48,16.14C10.702,16.554 10.827,16.544 6.653,16.544L2.864,16.544L2.528,16.38C2.108,16.174 1.891,15.95 1.665,15.488C1.212,14.561 1,13.477 1,12.083C1,10.639 1.289,9.18 1.732,8.386C1.939,8.016 2.335,7.701 2.759,7.569C3.181,7.438 10.159,7.446 10.702,7.578C11.389,7.745 11.787,8.005 12.489,8.745C12.993,9.276 13.217,9.463 13.533,9.618C14.707,10.195 15.965,9.968 16.884,9.015C17.545,8.329 17.785,7.656 17.729,6.644C17.702,6.148 17.669,6.022 17.447,5.559C16.771,4.151 15.224,3.495 13.833,4.027C13.31,4.228 13.055,4.421 12.397,5.115C11.758,5.79 11.333,6.068 10.715,6.215C10.545,6.255 9.164,6.281 7.079,6.282C3.346,6.283 3.445,6.294 3.444,5.885C3.444,5.715 3.522,5.605 3.953,5.178C5.164,3.976 6.873,2.98 8.604,2.465C9.649,2.154 10.421,2.041 11.725,2.008C13.113,1.972 13.928,2.058 15.119,2.368C18.539,3.257 21.293,5.608 22.48,8.651C22.728,9.286 23,10.302 23,10.59C23,10.915 22.82,11.213 22.546,11.341C22.311,11.452 22.038,11.458 17.5,11.458C12.22,11.459 12.217,11.459 11.45,11.072C11.146,10.919 10.902,10.714 10.409,10.196C9.74,9.492 9.384,9.248 8.792,9.084C8.382,8.971 7.707,8.976 7.261,9.096C5.873,9.47 4.905,11.019 5.144,12.487C5.433,14.264 7.123,15.412 8.789,14.963C9.384,14.803 9.728,14.567 10.411,13.848C10.919,13.314 11.136,13.133 11.455,12.979C12.241,12.599 12.233,12.6 17.53,12.599C22.967,12.598 22.669,12.572 22.904,13.067C23.009,13.29 23.014,13.359 22.95,13.743C22.771,14.821 22.132,16.338 21.434,17.338C19.746,19.761 16.962,21.446 13.886,21.908C13.054,22.033 10.98,22.03 10.166,21.902Z" style="fill:rgb(74,170,66);fill-rule:nonzero;"/>
    </g>
</svg>
