<?xml version="1.0" encoding="UTF-8" standalone="no"?>
<!DOCTYPE svg PUBLIC "-//W3C//DTD SVG 1.1//EN" "http://www.w3.org/Graphics/SVG/1.1/DTD/svg11.dtd">
<svg width="100%" height="100%" viewBox="0 0 564 564" version="1.1" xmlns="http://www.w3.org/2000/svg" xmlns:xlink="http://www.w3.org/1999/xlink" xml:space="preserve" xmlns:serif="http://www.serif.com/" style="fill-rule:evenodd;clip-rule:evenodd;stroke-linejoin:round;stroke-miterlimit:2;">
    <g id="Layer_x0020_1" transform="matrix(1,0,0,1,-68,-68)">
        <path d="M350,71C504,71 629,196 629,350C629,504 504,629 350,629C196,629 71,504 71,350C71,196 196,71 350,71Z" style="fill:rgb(254,254,254);"/>
        <path d="M475,236L593,387C596,503 444,639 301,585L225,486L339,330C339,330 477,235 475,236Z" style="fill:rgb(51,44,43);fill-opacity:0.15;"/>
        <path d="M231,211L439,211L477,235L477,481C477,486 474,489 469,489L231,489C226,489 223,486 223,481L223,219C223,214 226,211 231,211Z" style="fill:rgb(43,188,255);"/>
        <path d="M231,211L439,211L477,235L477,237L440,214L231,214C227,214 224,217 224,221L224,484C223,483 223,482 223,481L223,219C223,214 226,211 231,211Z" style="fill:rgb(83,198,252);"/>
        <rect x="305" y="212" width="113" height="98" style="fill:rgb(189,234,255);"/>
        <path d="M255,363L444,363C447,363 449,365 449,367L449,483L250,483L250,367C250,365 252,363 255,363Z" style="fill:rgb(189,234,255);"/>
        <rect x="250" y="470" width="199" height="13" style="fill:rgb(0,100,152);"/>
        <path d="M380,226L390,226C393,226 396,228 396,231L396,271C396,274 393,277 390,277L380,277C377,277 374,274 374,271L374,231C374,228 377,226 380,226Z" style="fill:rgb(0,100,152);"/>
        <path d="M254,226C264,226 271,233 271,243C271,252 264,259 254,259C245,259 237,252 237,243C237,233 245,226 254,226Z" style="fill:rgb(254,254,254);"/>
        <path d="M267,448L432,448C434,448 435,449 435,451C435,452 434,454 432,454L267,454C265,454 264,452 264,451C264,449 265,448 267,448Z" style="fill:rgb(0,100,152);"/>
        <path d="M267,415L432,415C434,415 435,416 435,418C435,419 434,420 432,420L267,420C265,420 264,419 264,418C264,416 265,415 267,415Z" style="fill:rgb(0,100,152);"/>
        <path d="M267,381L432,381C434,381 435,383 435,384C435,386 434,387 432,387L267,387C265,387 264,386 264,384C264,383 265,381 267,381Z" style="fill:rgb(0,100,152);"/>
        <path d="M236,472C239,472 241,474 241,477C241,479 239,481 236,481C233,481 231,479 231,477C231,474 233,472 236,472Z" style="fill:rgb(254,254,254);"/>
        <path d="M463,472C466,472 468,474 468,477C468,479 466,481 463,481C460,481 458,479 458,477C458,474 460,472 463,472Z" style="fill:rgb(254,254,254);"/>
        <rect x="284" y="212" width="21" height="98" style="fill:rgb(0,100,152);"/>
        <path d="M477,479L477,481C477,486 474,489 469,489L231,489C226,489 223,486 223,481L223,479C223,483 226,487 231,487L469,487C474,487 477,483 477,479Z" style="fill:rgb(14,165,235);"/>
        <path d="M350,70C505,70 630,195 630,350C630,505 505,630 350,630C195,630 70,505 70,350C70,195 195,70 350,70ZM350,116C479,116 584,221 584,350C584,479 479,584 350,584C221,584 116,479 116,350C116,221 221,116 350,116Z" style="fill:rgb(41,121,255);"/>
    </g>
</svg>
