<?xml version="1.0" encoding="UTF-8" standalone="no"?>
<!DOCTYPE svg PUBLIC "-//W3C//DTD SVG 1.1//EN" "http://www.w3.org/Graphics/SVG/1.1/DTD/svg11.dtd">
<svg width="100%" height="100%" viewBox="0 0 103 103" version="1.1" xmlns="http://www.w3.org/2000/svg" xmlns:xlink="http://www.w3.org/1999/xlink" xml:space="preserve" xmlns:serif="http://www.serif.com/" style="fill-rule:evenodd;clip-rule:evenodd;stroke-linejoin:round;stroke-miterlimit:2;">
    <g id="terminal-border" transform="matrix(1,0,0,1,-12.495239,-12.495239)">
        <path d="M115.505,20.419L115.505,107.581C115.505,111.954 111.954,115.505 107.581,115.505L20.419,115.505C16.046,115.505 12.495,111.954 12.495,107.581L12.495,20.419C12.495,16.046 16.046,12.495 20.419,12.495L107.581,12.495C111.954,12.495 115.505,16.046 115.505,20.419Z" style="fill:rgb(192,191,188);"/>
    </g>
    <g id="terminal-bg" transform="matrix(1,0,0,1,-12.495239,-12.495239)">
        <path d="M112,23.385L112,104.615C112,108.691 108.691,112 104.615,112L23.385,112C19.309,112 16,108.691 16,104.615L16,23.385C16,19.309 19.309,16 23.385,16L104.615,16C108.691,16 112,19.309 112,23.385Z" style="fill:rgb(40,40,40);"/>
    </g>
    <g id="foot" transform="matrix(0.857142,0,0,0.857142,3.428513,-145.99985)">
        <g id="main" transform="matrix(1,0,0,1,-14.577792,-14.577792)">
            <path d="M37.006,207.129C36.052,206.886 35.129,206.711 34.294,206.631C30.182,206.239 28.861,206.599 26.787,208.681C23.944,211.534 24.521,215.587 28.252,219.061C36.341,226.592 36.472,231.642 28.732,237.336C25.546,239.68 23.24,245.189 24.233,248.075C25.483,251.71 30.243,253.1 34.397,251.049C38.293,249.125 42.707,242.549 45.717,234.686C45.968,234.031 46.214,233.367 46.444,232.695C47.135,230.68 47.724,228.6 48.191,226.516C49.602,220.221 49.257,215.323 47.195,212.378C45.908,210.54 41.139,208.179 37.006,207.129L37.006,207.129Z" style="fill:rgb(251,241,199);fill-rule:nonzero;"/>
        </g>
        <g id="toes" transform="matrix(1,0,0,1,-1905.271092,-350.146822)">
            <ellipse id="toe3" cx="1934.693" cy="540.293" rx="2" ry="2.276" style="fill:rgb(251,241,199);"/>
            <ellipse id="toe4" cx="1939.069" cy="543.356" rx="1.624" ry="1.786" style="fill:rgb(251,241,199);"/>
            <ellipse id="toe5" cx="1941.361" cy="547.069" rx="1.333" ry="1.5" style="fill:rgb(251,241,199);"/>
            <ellipse id="toe1" cx="1921.883" cy="536.069" rx="3.81" ry="4.5" style="fill:rgb(251,241,199);"/>
            <ellipse id="toe2" cx="1929.193" cy="537.569" rx="2.5" ry="3" style="fill:rgb(251,241,199);"/>
        </g>
    </g>
    <g id="cursor" transform="matrix(1,0,0,1,-12.495239,-12.495239)">
        <rect x="48" y="64" width="22" height="4" style="fill:rgb(251,241,199);"/>
    </g>
</svg>
