<?xml version="1.0" encoding="UTF-8" standalone="no"?>
<!DOCTYPE svg PUBLIC "-//W3C//DTD SVG 1.1//EN" "http://www.w3.org/Graphics/SVG/1.1/DTD/svg11.dtd">
<svg width="100%" height="100%" viewBox="0 0 467 466" version="1.1" xmlns="http://www.w3.org/2000/svg" xmlns:xlink="http://www.w3.org/1999/xlink" xml:space="preserve" xmlns:serif="http://www.serif.com/" style="fill-rule:evenodd;clip-rule:evenodd;stroke-linejoin:round;stroke-miterlimit:2;">
    <g id="icon-transparent" transform="matrix(1,0,0,1,-22,-23)">
        <path id="inner-shape" d="M256,201.6C235.6,201.6 169.8,320.9 179.8,341C189.8,361.1 322.3,360.9 332.2,341C342.1,321.1 276.5,201.6 256,201.6Z" style="fill:url(#_Linear1);fill-rule:nonzero;"/>
        <path id="outer-shape" d="M256,23.3C194.4,23.3 -3.8,382.7 26.4,443.4C56.6,504.1 455.7,503.4 485.6,443.4C515.5,383.4 317.6,23.3 256,23.3ZM406.5,390.8C386.9,430.1 125.4,430.6 105.6,390.8C85.8,351 215.7,115.5 256,115.5C296.3,115.5 426.1,351.4 406.5,390.8Z" style="fill:url(#_Linear2);fill-rule:nonzero;"/>
    </g>
    <defs>
        <linearGradient id="_Linear1" x1="0" y1="0" x2="1" y2="0" gradientUnits="userSpaceOnUse" gradientTransform="matrix(385.89,222.79,-222.79,385.89,110.25,213.3)"><stop offset="0" style="stop-color:rgb(170,92,195);stop-opacity:1"/><stop offset="1" style="stop-color:rgb(0,164,220);stop-opacity:1"/></linearGradient>
        <linearGradient id="_Linear2" x1="0" y1="0" x2="1" y2="0" gradientUnits="userSpaceOnUse" gradientTransform="matrix(385.89,222.79,-222.79,385.89,110.25,213.3)"><stop offset="0" style="stop-color:rgb(170,92,195);stop-opacity:1"/><stop offset="1" style="stop-color:rgb(0,164,220);stop-opacity:1"/></linearGradient>
    </defs>
</svg>
