<?xml version="1.0" encoding="UTF-8" standalone="no"?>
<!DOCTYPE svg PUBLIC "-//W3C//DTD SVG 1.1//EN" "http://www.w3.org/Graphics/SVG/1.1/DTD/svg11.dtd">
<svg width="100%" height="100%" viewBox="0 0 2079 916" version="1.1" xmlns="http://www.w3.org/2000/svg" xmlns:xlink="http://www.w3.org/1999/xlink" xml:space="preserve" xmlns:serif="http://www.serif.com/" style="fill-rule:evenodd;clip-rule:evenodd;stroke-linejoin:round;stroke-miterlimit:2;">
    <g transform="matrix(12.969765,0,0,12.969765,-211.25153,-792.595302)">
        <path d="M142.281,90.03L138.228,99.905L138.228,100.083L148.449,100.083L150.74,99.905L153.031,100.083C154.97,100.435 156.732,101.493 158.318,103.081C160.431,105.02 161.49,107.665 161.49,110.663C161.49,113.661 160.431,116.13 158.318,118.245C156.38,120.009 154.265,121.067 151.621,121.243L114.439,121.243L110.21,131.647L160.079,131.647C164.134,131.118 167.833,129.354 171.005,126.356L174.704,121.243C175.938,118.95 176.468,116.13 176.468,113.132C176.468,108.017 174.704,103.786 171.005,100.259L171.005,100.083L170.829,99.905C167.833,96.907 164.134,95.32 159.903,94.792C163.78,94.439 167.128,92.853 170.124,90.031C173.296,86.68 174.882,82.625 175.058,78.04L174.001,71.692L170.124,66.048C167.128,63.051 163.78,61.463 159.903,61.111L118.844,61.111L95.936,119.125L80.782,78.921L78.668,74.159L77.082,71.691L73.91,67.812C70.209,64.108 65.98,61.993 61.223,61.111L16.288,61.111L16.288,131.293L55.584,131.293C59.285,130.764 62.985,129.529 66.51,127.59C69.505,125.826 71.972,123.711 74.263,121.242L75.496,120.008L68.8,102.197L67.567,106.605C66.334,109.427 64.396,112.072 62.105,114.365C58.406,118.244 53.824,120.537 48.536,121.242L31.09,121.242L31.09,71.691L50.298,71.691C55.409,72.396 59.814,74.688 63.514,78.392C65.277,80.331 66.686,82.271 67.919,84.563L85.364,131.646L105.628,131.646L130.474,71.69L152.15,71.866C153.887,72.219 155.482,73.078 156.732,74.335C158.494,76.274 159.375,78.391 159.375,80.859C159.375,83.328 158.494,85.444 156.732,87.383C155.146,88.97 153.207,89.852 150.918,90.028L142.281,90.028L142.281,90.03Z" style="fill:white;"/>
    </g>
</svg>
