<?xml version="1.0" encoding="UTF-8" standalone="no"?>
<!DOCTYPE svg PUBLIC "-//W3C//DTD SVG 1.1//EN" "http://www.w3.org/Graphics/SVG/1.1/DTD/svg11.dtd">
<svg width="100%" height="100%" viewBox="0 0 167 184" version="1.1" xmlns="http://www.w3.org/2000/svg" xmlns:xlink="http://www.w3.org/1999/xlink" xml:space="preserve" xmlns:serif="http://www.serif.com/" style="fill-rule:evenodd;clip-rule:evenodd;">
    <g id="layer1" transform="matrix(3.779527,0,0,3.779527,-4443.730148,1927.359761)">
        <g id="g10987" transform="matrix(1,0,0,1,-1.535559,-290.558487)">
            <g id="g10985" transform="matrix(1,0,0,1,238.41304,-199.74894)">
                <path id="path10821" d="M964,-1.3L976.7,-1.3" style="fill:none;stroke:rgb(60,110,180);stroke-width:1.1px;"/>
                <path id="path10823" d="M966.1,1.4L978.8,1.4" style="fill:none;stroke:rgb(60,110,180);stroke-width:1.1px;"/>
                <g id="g10875" transform="matrix(1.150046,0,0,1.151009,-143.9252,0.439082)">
                    <path id="path10825" d="M973.1,3.4C970.8,-0.3 971.3,-4 970.2,-9.1C969.6,-12.3 967.6,-14.9 965,-15.9C962.8,-16.6 958.3,-16.6 956.4,-15.9C953.7,-14.9 951.7,-12.3 951.1,-9.1C950,-4 950.5,-0.3 948.2,3.4" style="fill:rgb(204,204,204);stroke:black;stroke-width:0.7px;"/>
                    <ellipse id="ellipse10827" cx="966.6" cy="-4.1" rx="1.1" ry="1.2" style="fill:rgb(231,232,233);"/>
                    <ellipse id="ellipse10829" cx="955.3" cy="-4.1" rx="1.1" ry="1.2" style="fill:rgb(231,232,233);"/>
                    <g id="g10839" transform="matrix(0.887899,0,0,0.887899,108.02196,0.557834)">
                        <path id="path10831" d="M956.4,-6L951.7,-4.7" style="fill:none;stroke:rgb(167,169,172);stroke-width:0.5px;"/>
                        <path id="path10833" d="M956.9,-5.3L952.3,-2.5" style="fill:none;stroke:rgb(167,169,172);stroke-width:0.5px;"/>
                        <path id="path10835" d="M957.3,-4.4L952.6,0.4" style="fill:none;stroke:rgb(167,169,172);stroke-width:0.5px;"/>
                        <path id="path10837" d="M957.5,-3.3L955.1,0.9" style="fill:none;stroke:rgb(167,169,172);stroke-width:0.5px;"/>
                    </g>
                    <g id="g10849" transform="matrix(-0.887899,0,0,0.887899,1814.1581,0.557834)">
                        <path id="path10841" d="M956.4,-6L951.7,-4.7" style="fill:none;stroke:rgb(167,169,172);stroke-width:0.5px;"/>
                        <path id="path10843" d="M956.9,-5.3L952.3,-2.5" style="fill:none;stroke:rgb(167,169,172);stroke-width:0.5px;"/>
                        <path id="path10845" d="M957.3,-4.4L952.6,0.4" style="fill:none;stroke:rgb(167,169,172);stroke-width:0.5px;"/>
                        <path id="path10847" d="M957.5,-3.3L955.1,0.9" style="fill:none;stroke:rgb(167,169,172);stroke-width:0.5px;"/>
                    </g>
                    <ellipse id="ellipse10851" cx="961" cy="-4.9" rx="3.6" ry="3.4" style="fill:white;stroke:rgb(96,96,91);stroke-width:0.7px;stroke-linecap:square;"/>
                    <g id="ellipse10853" transform="matrix(-1,0,0,1,0,0)">
                        <ellipse cx="-966.5" cy="-7.8" rx="1.7" ry="1.8" style="stroke:rgb(137,44,160);stroke-width:0.7px;stroke-linecap:square;"/>
                    </g>
                    <path id="path10855" d="M968.1,-11.5C967.7,-12 967.2,-12.3 966.6,-12.3C966.1,-12.3 965.5,-12.1 965.2,-11.7" style="fill:none;fill-rule:nonzero;stroke:black;stroke-width:0.7px;stroke-linecap:square;"/>
                    <g id="g10863" transform="matrix(0.887899,0,0,0.887899,106.61242,0.087987)">
                        <g id="g10861" transform="matrix(1,0,0,1,0,-0.529167)">
                            <path id="path10857" d="M962.3,-5.8L962.4,-3.8C962.4,-3.8 964,-2.4 964.9,-3.8C964.9,-3.8 964.8,-4.7 964.8,-4.9" style="fill:none;stroke:black;stroke-width:0.8px;"/>
                            <path id="path10859" d="M962.3,-5.8L962.2,-3.8C962.2,-3.8 960.6,-2.4 959.7,-3.8C959.7,-3.8 959.8,-4.7 959.8,-4.9" style="fill:none;stroke:black;stroke-width:0.8px;"/>
                        </g>
                    </g>
                    <path id="path10865" d="M962.6,-5.5C962.5,-5.9 962.5,-6.5 962.1,-6.5C961.7,-6.5 961.4,-6.7 961,-6.7C960.7,-6.7 960.4,-6.5 960,-6.5C959.6,-6.5 959.6,-5.9 959.5,-5.5C959.4,-5.2 961,-4.2 961,-4.2C961,-4.2 962.7,-5.2 962.6,-5.5Z" style="fill:rgb(128,128,128);fill-rule:nonzero;stroke:black;stroke-width:0.7px;stroke-linecap:square;"/>
                    <ellipse id="ellipse10867" cx="955.4" cy="-7.8" rx="1.7" ry="1.8" style="stroke:rgb(137,44,160);stroke-width:0.7px;stroke-linecap:square;"/>
                    <ellipse id="ellipse10869" cx="954.8" cy="-8.3" rx="0.8" ry="0.9" style="fill:white;"/>
                    <path id="path10871" d="M953.8,-11.5C954.2,-12 954.7,-12.3 955.3,-12.3C955.8,-12.3 956.3,-12.1 956.7,-11.7" style="fill:none;fill-rule:nonzero;stroke:black;stroke-width:0.7px;stroke-linecap:square;"/>
                    <ellipse id="ellipse10873" cx="965.9" cy="-8.3" rx="0.8" ry="0.9" style="fill:white;"/>
                </g>
                <path id="path10877" d="M948.2,4.3L981.1,4.3" style="fill:none;stroke:rgb(60,110,180);stroke-width:1.1px;"/>
                <g id="g10929" transform="matrix(0.830485,0,0,0.830485,164.55035,-1.423795)">
                    <g>
                        <g>
                            <clipPath id="_clip1">
                                <rect x="934.7" y="-1.5" width="26.2" height="12.8"/>
                            </clipPath>
                            <g clip-path="url(#_clip1)">
                                <path id="path10879" d="M958.3,13.7C958.1,12 957.9,10 957.4,7.7C956.9,4.9 955.1,2.6 952.8,1.7C950.9,1.1 946.9,1.1 945.2,1.7C942.8,2.6 941.1,4.9 940.5,7.7C940,10 939.9,12 939.6,13.7" style="fill:rgb(204,204,204);stroke:black;stroke-width:1px;"/>
                                <circle id="ellipse10881" cx="954.2" cy="12.2" r="1" style="fill:rgb(231,232,233);"/>
                                <circle id="ellipse10883" cx="944.2" cy="12.2" r="1" style="fill:rgb(231,232,233);"/>
                                <g id="g10893" transform="matrix(0.786524,0,0,0.785306,193.68501,16.288101)">
                                    <path id="path10885" d="M956.4,-6L951.7,-4.7" style="fill:none;stroke:rgb(167,169,172);stroke-width:0.8px;"/>
                                    <path id="path10887" d="M956.9,-5.3L952.3,-2.5" style="fill:none;stroke:rgb(167,169,172);stroke-width:0.8px;"/>
                                    <path id="path10889" d="M957.3,-4.4L952.6,0.4" style="fill:none;stroke:rgb(167,169,172);stroke-width:0.8px;"/>
                                    <path id="path10891" d="M957.5,-3.3L955.1,0.9" style="fill:none;stroke:rgb(167,169,172);stroke-width:0.8px;"/>
                                </g>
                                <g id="g10903" transform="matrix(-0.786524,0,0,0.785306,1705.0252,16.288101)">
                                    <path id="path10895" d="M956.4,-6L951.7,-4.7" style="fill:none;stroke:rgb(167,169,172);stroke-width:0.8px;"/>
                                    <path id="path10897" d="M956.9,-5.3L952.3,-2.5" style="fill:none;stroke:rgb(167,169,172);stroke-width:0.8px;"/>
                                    <path id="path10899" d="M957.3,-4.4L952.6,0.4" style="fill:none;stroke:rgb(167,169,172);stroke-width:0.8px;"/>
                                    <path id="path10901" d="M957.5,-3.3L955.1,0.9" style="fill:none;stroke:rgb(167,169,172);stroke-width:0.8px;"/>
                                </g>
                                <ellipse id="ellipse10905" cx="949.3" cy="11.4" rx="3.2" ry="3" style="fill:white;stroke:rgb(96,96,91);stroke-width:1px;stroke-linecap:square;"/>
                                <g id="ellipse10907" transform="matrix(-1,0,0,1,0,0)">
                                    <ellipse cx="-954.2" cy="8.9" rx="1.5" ry="1.6" style="stroke:rgb(137,44,160);stroke-width:1px;stroke-linecap:square;"/>
                                </g>
                                <path id="path10909" d="M955.5,5.6C955.2,5.2 954.8,4.9 954.3,4.9C953.8,4.9 953.3,5.1 953,5.4" style="fill:none;fill-rule:nonzero;stroke:black;stroke-width:1px;stroke-linecap:square;"/>
                                <g id="g10917" transform="matrix(0.786524,0,0,0.785306,192.4364,15.872544)">
                                    <g id="g10915" transform="matrix(1,0,0,1,0,-0.529167)">
                                        <path id="path10911" d="M962.3,-5.8L962.4,-3.8C962.4,-3.8 964,-2.4 964.9,-3.8C964.9,-3.8 964.8,-4.7 964.8,-4.9" style="fill:none;stroke:black;stroke-width:1.2px;"/>
                                        <path id="path10913" d="M962.3,-5.8L962.2,-3.8C962.2,-3.8 960.6,-2.4 959.7,-3.8C959.7,-3.8 959.8,-4.7 959.8,-4.9" style="fill:none;stroke:black;stroke-width:1.2px;"/>
                                    </g>
                                </g>
                                <path id="path10919" d="M950.7,10.9C950.6,10.6 950.6,10.1 950.2,10.1C949.9,10.1 949.6,9.9 949.3,9.9C949,9.9 948.7,10.1 948.4,10.1C948.1,10.1 948.1,10.6 948,10.9C947.9,11.2 949.3,12.1 949.3,12.1C949.3,12.1 950.8,11.2 950.7,10.9Z" style="fill:rgb(128,128,128);fill-rule:nonzero;stroke:black;stroke-width:1px;stroke-linecap:square;"/>
                                <ellipse id="ellipse10921" cx="944.3" cy="8.9" rx="1.5" ry="1.6" style="stroke:rgb(137,44,160);stroke-width:1px;stroke-linecap:square;"/>
                                <circle id="ellipse10923" cx="943.8" cy="8.4" r="0.8" style="fill:white;"/>
                                <path id="path10925" d="M942.9,5.6C943.2,5.2 943.7,4.9 944.2,4.9C944.7,4.9 945.2,5.1 945.5,5.4" style="fill:none;fill-rule:nonzero;stroke:black;stroke-width:1px;stroke-linecap:square;"/>
                                <circle id="ellipse10927" cx="953.8" cy="8.5" r="0.8" style="fill:white;"/>
                            </g>
                        </g>
                    </g>
                </g>
                <path id="path10933" d="M943.4,8.5L963.3,8.5" style="fill:none;stroke:rgb(60,110,180);stroke-width:1.1px;"/>
                <path id="path10935" d="M952.9,12.5L980.4,12.5" style="fill:none;stroke:rgb(60,110,180);stroke-width:1.1px;"/>
                <g id="g10979" transform="matrix(1,0,0,1,0.780454,0.88371)">
                    <path id="path10937" d="M977.5,11.1C977.2,9.5 977.1,7.8 976.7,5.8C976.2,3.3 974.6,1.2 972.6,0.5C970.9,-0.1 967.3,-0.1 965.8,0.5C963.7,1.2 962.1,3.3 961.7,5.8C961.2,7.8 961.1,9.5 960.9,11.1" style="fill:rgb(204,204,204);stroke:black;stroke-width:0.8px;"/>
                    <circle id="ellipse10939" cx="973.8" cy="9.7" r="0.9" style="fill:rgb(231,232,233);"/>
                    <circle id="ellipse10941" cx="964.9" cy="9.7" r="0.9" style="fill:rgb(231,232,233);"/>
                    <g id="g10947" transform="matrix(0.698354,0,0,0.697273,299.02348,11.966021)">
                        <path id="path10943" d="M955.7,-4L951.1,-2.7" style="fill:none;stroke:rgb(167,169,172);stroke-width:0.8px;"/>
                        <path id="path10945" d="M956.3,-3.2L951.6,-0.5" style="fill:none;stroke:rgb(167,169,172);stroke-width:0.8px;"/>
                    </g>
                    <g id="g10953" transform="matrix(-0.698354,0,0,0.697273,1640.4712,13.375562)">
                        <path id="path10949" d="M956.4,-6L951.7,-4.7" style="fill:none;stroke:rgb(167,169,172);stroke-width:0.8px;"/>
                        <path id="path10951" d="M956.9,-5.3L952.3,-2.5" style="fill:none;stroke:rgb(167,169,172);stroke-width:0.8px;"/>
                    </g>
                    <ellipse id="ellipse10955" cx="969.5" cy="9.1" rx="2.8" ry="2.7" style="fill:white;stroke:rgb(96,96,91);stroke-width:0.8px;stroke-linecap:square;"/>
                    <g id="ellipse10957" transform="matrix(-1,0,0,1,0,0)">
                        <circle cx="-973.8" cy="6.8" r="1.4" style="stroke:rgb(137,44,160);stroke-width:0.8px;stroke-linecap:square;"/>
                    </g>
                    <path id="path10959" d="M975,3.9C974.7,3.5 974.3,3.3 973.9,3.3C973.4,3.3 973,3.4 972.7,3.7" style="fill:none;fill-rule:nonzero;stroke:black;stroke-width:0.8px;stroke-linecap:square;"/>
                    <g id="g10967" transform="matrix(0.698354,0,0,0.697273,297.44499,13.006589)">
                        <g id="g10965" transform="matrix(1,0,0,1,0,-0.529167)">
                            <path id="path10961" d="M962.3,-5.8L962.4,-3.8C962.4,-3.8 964,-2.4 964.9,-3.8C964.9,-3.8 964.8,-4.7 964.8,-4.9" style="fill:none;stroke:black;stroke-width:1.1px;"/>
                            <path id="path10963" d="M962.3,-5.8L962.2,-3.8C962.2,-3.8 960.6,-2.4 959.7,-3.8C959.7,-3.8 959.8,-4.7 959.8,-4.9" style="fill:none;stroke:black;stroke-width:1.1px;"/>
                        </g>
                    </g>
                    <path id="path10969" d="M970.7,8.6C970.6,8.3 970.6,7.9 970.3,7.9C970,7.9 969.8,7.7 969.5,7.7C969.2,7.7 968.9,7.9 968.7,7.9C968.4,7.9 968.4,8.3 968.3,8.6C968.2,8.8 969.5,9.6 969.5,9.6C969.5,9.6 970.8,8.8 970.7,8.6Z" style="fill:rgb(128,128,128);fill-rule:nonzero;stroke:black;stroke-width:0.8px;stroke-linecap:square;"/>
                    <circle id="ellipse10971" cx="965" cy="6.8" r="1.4" style="stroke:rgb(137,44,160);stroke-width:0.8px;stroke-linecap:square;"/>
                    <circle id="ellipse10973" cx="964.6" cy="6.4" r="0.7" style="fill:white;"/>
                    <path id="path10975" d="M963.8,3.9C964.1,3.5 964.5,3.3 964.9,3.3C965.4,3.3 965.8,3.4 966.1,3.7" style="fill:none;fill-rule:nonzero;stroke:black;stroke-width:0.8px;stroke-linecap:square;"/>
                    <circle id="ellipse10977" cx="973.5" cy="6.5" r="0.7" style="fill:white;"/>
                </g>
                <path id="path10981" d="M950.8,15.1L963.5,15.1" style="fill:none;stroke:rgb(60,110,180);stroke-width:1.1px;"/>
                <path id="path10983" d="M958.2,17.8L968.6,17.8" style="fill:none;stroke:rgb(60,110,180);stroke-width:1.1px;"/>
            </g>
        </g>
        <g transform="matrix(0.279845,0,0,0.279845,829.55661,-410.278413)">
            <path d="M1249.878,-209.933C1246.758,-209.933 1244.352,-208.655 1242.886,-206.324L1242.886,-209.783L1238.563,-209.783L1238.563,-182.491L1242.886,-182.491L1242.886,-193.242C1244.352,-190.912 1246.758,-189.633 1249.953,-189.633C1255.667,-189.633 1259.426,-193.731 1259.426,-199.708C1259.426,-205.798 1255.554,-209.933 1249.878,-209.933ZM1248.976,-193.317C1245.404,-193.317 1242.886,-195.987 1242.886,-199.858C1242.886,-203.618 1245.404,-206.324 1248.976,-206.324C1252.546,-206.324 1255.066,-203.58 1255.066,-199.858C1255.066,-196.024 1252.546,-193.318 1248.976,-193.318L1248.976,-193.317ZM1272.496,-209.933C1266.294,-209.933 1262.046,-205.835 1262.046,-199.783C1262.046,-193.768 1266.294,-189.633 1272.496,-189.633C1278.661,-189.633 1282.909,-193.768 1282.909,-199.783C1282.909,-205.835 1278.661,-209.933 1272.496,-209.933ZM1272.496,-206.211C1276.068,-206.211 1278.586,-203.58 1278.586,-199.745C1278.586,-195.874 1276.068,-193.242 1272.496,-193.242C1268.888,-193.242 1266.369,-195.874 1266.369,-199.745C1266.369,-203.58 1268.888,-206.211 1272.496,-206.211ZM1302.156,-217.677L1302.156,-206.324C1300.69,-208.654 1298.285,-209.97 1295.052,-209.97C1289.412,-209.97 1285.541,-205.873 1285.541,-199.858C1285.541,-193.768 1289.375,-189.596 1295.127,-189.596C1298.322,-189.596 1300.727,-190.874 1302.157,-193.204L1302.157,-189.784L1306.48,-189.784L1306.48,-217.677L1302.156,-217.677ZM1296.029,-193.204C1292.383,-193.204 1289.902,-195.911 1289.864,-199.708C1289.902,-203.542 1292.42,-206.286 1296.029,-206.286C1299.638,-206.286 1302.156,-203.58 1302.156,-199.708C1302.156,-195.911 1299.638,-193.204 1296.029,-193.204Z" style="fill:rgb(137,44,160);fill-rule:nonzero;"/>
        </g>
        <g transform="matrix(0.279845,0,0,0.279845,829.55661,-410.278413)">
            <path d="M1339.133,-209.933C1335.487,-209.933 1332.818,-208.467 1331.54,-205.121C1330.6,-208.166 1328.157,-209.933 1324.585,-209.933C1321.277,-209.933 1318.721,-208.73 1317.33,-205.911L1317.33,-209.783L1313.045,-209.783L1313.045,-189.783L1317.33,-189.783L1317.33,-199.67C1317.33,-203.166 1319.435,-205.798 1322.894,-205.91C1325.826,-205.91 1327.593,-204.069 1327.593,-201.024L1327.593,-189.784L1331.916,-189.784L1331.916,-199.67C1331.916,-203.166 1333.983,-205.798 1337.404,-205.91C1340.336,-205.91 1342.141,-204.069 1342.141,-201.024L1342.141,-189.784L1346.464,-189.784L1346.464,-202.227C1346.464,-207.001 1343.72,-209.933 1339.134,-209.933L1339.133,-209.933ZM1368.492,-189.784L1368.454,-202.904C1368.416,-207.301 1365.521,-209.933 1360.371,-209.933C1356.574,-209.933 1354.544,-209.068 1351.763,-207.414L1353.53,-204.407C1355.522,-205.76 1357.514,-206.437 1359.432,-206.437C1362.589,-206.437 1364.206,-204.933 1364.206,-202.415L1364.206,-201.813L1358.153,-201.813C1353.342,-201.775 1350.597,-199.445 1350.597,-195.798C1350.597,-192.265 1353.304,-189.596 1357.627,-189.596C1360.522,-189.596 1362.815,-190.46 1364.243,-192.227L1364.243,-189.784L1368.492,-189.784ZM1358.53,-193.017C1356.124,-193.017 1354.658,-194.182 1354.658,-195.987C1354.658,-197.903 1355.973,-198.655 1358.793,-198.655L1364.206,-198.655L1364.206,-196.813C1363.98,-194.633 1361.612,-193.017 1358.53,-193.017ZM1385.97,-209.933C1382.586,-209.933 1380.03,-208.73 1378.601,-205.948L1378.601,-209.783L1374.278,-209.783L1374.278,-189.783L1378.601,-189.783L1378.601,-200.423C1378.902,-203.543 1380.97,-205.835 1384.278,-205.873C1387.285,-205.873 1389.09,-204.031 1389.09,-201.023L1389.09,-189.783L1393.413,-189.783L1393.413,-202.227C1393.413,-207.001 1390.631,-209.933 1385.97,-209.933Z" style="fill:rgb(96,96,91);fill-rule:nonzero;"/>
        </g>
    </g>
</svg>
