<?xml version="1.0" encoding="UTF-8" standalone="no"?>
<!DOCTYPE svg PUBLIC "-//W3C//DTD SVG 1.1//EN" "http://www.w3.org/Graphics/SVG/1.1/DTD/svg11.dtd">
<svg width="100%" height="100%" viewBox="0 0 493 314" version="1.1" xmlns="http://www.w3.org/2000/svg" xmlns:xlink="http://www.w3.org/1999/xlink" xml:space="preserve" xmlns:serif="http://www.serif.com/" style="fill-rule:evenodd;clip-rule:evenodd;stroke-linejoin:round;stroke-miterlimit:2;">
    <g id="Layer-1" serif:id="Layer 1" transform="matrix(1,0,0,1,-103,-479.36218)">
        <g id="g5142" transform="matrix(1,0,0,1,19.230768,-616.00002)">
            <path id="rect2816-3-4-9" d="M403.8,1095.6C394.6,1095.6 387.1,1103.1 387.1,1112.3L387.1,1150.1C387.1,1154.4 388.8,1158.4 391.6,1161.4C388.8,1164.4 387.1,1168.3 387.1,1172.7L387.1,1210.5C387.1,1212.8 387.6,1215.1 388.5,1217.2L331.6,1217.2C331.6,1217.2 331.5,1217.2 331.5,1217.2L302.6,1217.2C293.4,1217.2 285.9,1224.7 285.9,1233.8L285.9,1271.7C285.9,1276 287.6,1280 290.4,1283C287.6,1286 285.9,1289.9 285.9,1294.3L285.9,1332.1C285.9,1341.2 293.4,1348.8 302.6,1348.8L331.5,1348.8C331.5,1348.8 331.6,1348.8 331.6,1348.8L388.2,1348.8C387.5,1350.6 387.1,1352.6 387.1,1354.6L387.1,1392.5C387.1,1401.6 394.6,1409.1 403.8,1409.1L432.7,1409.1C441.9,1409.1 449.4,1401.6 449.4,1392.5L449.4,1354.6C449.4,1350.3 447.7,1346.4 444.9,1343.4C447.7,1340.4 449.4,1336.4 449.4,1332.1L449.4,1294.3C449.4,1285.1 441.9,1277.6 432.7,1277.6L403.8,1277.6C394.6,1277.6 387.1,1285.1 387.1,1294.3L387.1,1332.1C387.1,1334.4 387.6,1336.7 388.5,1338.8L346.7,1338.8C347.6,1336.7 348.1,1334.4 348.1,1332.1L348.1,1294.3C348.1,1289.9 346.4,1286 343.7,1283C346.4,1280 348.1,1276 348.1,1271.7L348.1,1233.8C348.1,1231.5 347.6,1229.2 346.7,1227.2L432.7,1227.2C441.9,1227.2 449.4,1219.6 449.4,1210.5L449.4,1172.7C449.4,1168.3 447.7,1164.4 444.9,1161.4C447.7,1158.4 449.4,1154.4 449.4,1150.1L449.4,1112.3C449.4,1103.1 441.9,1095.6 432.7,1095.6L403.8,1095.6ZM403.8,1105.6L432.7,1105.6C436.5,1105.6 439.4,1108.5 439.4,1112.3L439.4,1150.1C439.4,1152.9 437.8,1155.3 435.4,1156.3L401.1,1156.3C398.7,1155.3 397.1,1152.9 397.1,1150.1L397.1,1112.3C397.1,1108.5 400,1105.6 403.8,1105.6ZM401.1,1166.5L435.4,1166.5C437.8,1167.5 439.4,1169.8 439.4,1172.7L439.4,1210.5C439.4,1214.3 436.5,1217.2 432.7,1217.2L403.8,1217.2C400,1217.2 397.1,1214.3 397.1,1210.5L397.1,1172.7C397.1,1169.8 398.7,1167.5 401.1,1166.5ZM302.6,1227.2L331.5,1227.2C335.3,1227.2 338.1,1230.1 338.1,1233.8L338.1,1271.7C338.1,1274.5 336.5,1276.8 334.2,1277.8L299.9,1277.8C297.5,1276.8 295.9,1274.5 295.9,1271.7L295.9,1233.8C295.9,1230.1 298.8,1227.2 302.6,1227.2ZM403.8,1287.6L432.7,1287.6C436.5,1287.6 439.4,1290.5 439.4,1294.3L439.4,1332.1C439.4,1334.9 437.8,1337.2 435.4,1338.2L401.1,1338.2C398.7,1337.2 397.1,1334.9 397.1,1332.1L397.1,1294.3C397.1,1290.5 400,1287.6 403.8,1287.6ZM299.9,1288.1L334.1,1288.1C336.5,1289.1 338.1,1291.4 338.1,1294.3L338.1,1332.1C338.1,1335.9 335.3,1338.8 331.5,1338.8L302.6,1338.8C298.8,1338.8 295.9,1335.9 295.9,1332.1L295.9,1294.3C295.9,1291.4 297.5,1289.1 299.9,1288.1ZM435.4,1348.5C437.8,1349.5 439.4,1351.8 439.4,1354.6L439.4,1392.5C439.4,1396.3 436.5,1399.1 432.7,1399.1L403.8,1399.1C400,1399.1 397.1,1396.3 397.1,1392.5L397.1,1354.6C397.1,1352 398.5,1349.9 400.6,1348.8C405.3,1348.8 424.1,1348.5 435.4,1348.5Z" style="fill:white;fill-rule:nonzero;"/>
            <path id="rect3770-1-1-5-8-3-8-7-4" d="M490.6,1286.1C481.5,1286.2 474,1293.6 474,1302.8L474,1400.6L498.9,1400.6L498.9,1340.5L513.6,1340.5L513.6,1315.6L498.9,1315.6L498.9,1311.1L513.6,1311.1L513.6,1286.1L490.6,1286.1Z" style="fill:white;fill-rule:nonzero;"/>
            <path id="rect3770-1-1-5-2-1-1-3-4-7-7" d="M543.4,1315.6C534.3,1315.6 526.8,1323.1 526.8,1332.2L526.8,1340.5L547.5,1375.7L526.8,1375.7L526.8,1400.6L560.1,1400.6C569.2,1400.6 576.6,1393.1 576.6,1384L576.6,1375.7L556,1340.5L576.6,1340.5L576.6,1315.6L543.4,1315.6Z" style="fill:white;fill-rule:nonzero;"/>
            <path id="rect3770-1-6-1-8-0-7-8" d="M190.1,1225.7C180.9,1225.8 173.5,1233.2 173.5,1242.3L173.5,1255.2L161,1255.2L161,1280.1L173.5,1280.1L173.5,1340.2L198.4,1340.2L198.4,1280.1L210.9,1280.1L210.9,1255.2L198.4,1255.2L198.4,1225.7L190.1,1225.7Z" style="fill:white;fill-rule:nonzero;"/>
            <path id="rect3770-1-1-1-1-0-7-3-3" d="M245.2,1255.2C236.1,1255.2 228.7,1262.7 228.6,1271.8L228.6,1340.2L253.6,1340.2L253.6,1280.1L268.3,1280.1L268.3,1255.2L245.2,1255.2Z" style="fill:white;fill-rule:nonzero;"/>
            <path id="rect3770-7-4-8-63-3-5" d="M101.5,1225.7C92.4,1225.8 84.9,1233.2 84.9,1242.3L84.9,1340.2L135.3,1340.2C144.4,1340.2 151.9,1332.7 151.9,1323.6L151.9,1255.2L109.8,1255.2L109.8,1225.7L101.5,1225.7ZM109.8,1280.1L127,1280.1L127,1315.3L109.8,1315.3L109.8,1280.1Z" style="fill:white;fill-rule:nonzero;"/>
            <g id="text2867">
            </g>
        </g>
    </g>
</svg>
