<?xml version="1.0" encoding="UTF-8" standalone="no"?>
<!DOCTYPE svg PUBLIC "-//W3C//DTD SVG 1.1//EN" "http://www.w3.org/Graphics/SVG/1.1/DTD/svg11.dtd">
<svg width="100%" height="100%" viewBox="0 0 272 117" version="1.1" xmlns="http://www.w3.org/2000/svg" xmlns:xlink="http://www.w3.org/1999/xlink" xml:space="preserve" xmlns:serif="http://www.serif.com/" style="fill-rule:evenodd;clip-rule:evenodd;stroke-linejoin:round;stroke-miterlimit:2;">
    <g transform="matrix(1,0,0,1,-70.31,-107.68)">
        <path d="M99.501,117.401C99.223,117.401 99.223,117.542 99.084,117.679C87.011,134.609 79.934,145.85 72.439,159.727L71.607,161.253L71.467,161.809C70.774,163.198 70.912,164.723 71.884,165.972C76.324,172.91 101.165,181.098 156.535,181.098C197.889,181.098 241.88,174.437 241.88,161.949C241.88,150.152 198.583,143.076 156.535,143.076C142.518,143.076 128.78,144.88 124.894,145.574C128.641,139.745 144.461,118.511 144.461,118.374C144.738,118.097 144.738,118.097 144.738,117.958L144.738,117.681C144.461,117.542 144.322,117.403 144.045,117.403L99.501,117.401ZM115.598,161.948C115.598,159.45 131.28,155.842 156.536,155.842C181.792,155.842 197.336,159.45 197.336,161.948C197.336,164.722 181.793,168.192 156.536,168.192C131.279,168.193 115.598,164.724 115.598,161.948Z" style="fill:rgb(0,149,213);fill-rule:nonzero;"/>
        <path d="M130.863,224.258C137.94,224.397 337.08,231.334 341.522,160.699C345.128,102.274 198.584,107.826 198.584,107.826C198.308,107.826 197.336,107.826 197.336,108.519C197.336,109.352 197.752,109.492 198.308,109.492C238.967,109.492 305.025,125.727 302.943,160.699C301.277,189.009 249.654,222.313 130.864,222.313C130.309,222.313 129.754,222.869 129.754,223.285C129.753,223.703 130.169,224.119 130.863,224.258Z" style="fill:rgb(0,149,213);fill-rule:nonzero;"/>
    </g>
</svg>
