<?xml version="1.0" encoding="UTF-8" standalone="no"?>
<!DOCTYPE svg PUBLIC "-//W3C//DTD SVG 1.1//EN" "http://www.w3.org/Graphics/SVG/1.1/DTD/svg11.dtd">
<svg width="100%" height="100%" viewBox="0 0 481 496" version="1.1" xmlns="http://www.w3.org/2000/svg" xmlns:xlink="http://www.w3.org/1999/xlink" xml:space="preserve" xmlns:serif="http://www.serif.com/" style="fill-rule:evenodd;clip-rule:evenodd;stroke-linejoin:round;stroke-miterlimit:2;">
    <path d="M462.606,166.433C452.154,141.316 431.031,114.203 414.402,105.624C426.227,128.525 434.432,153.11 438.738,178.539L438.8,178.944C411.625,111.208 365.573,83.908 327.946,24.472C326.012,21.445 324.109,18.388 322.298,15.268C321.363,13.645 320.489,11.992 319.647,10.307C318.087,7.281 316.87,4.098 316.059,0.791C316.059,0.479 315.84,0.198 315.528,0.136C315.372,0.105 315.216,0.105 315.061,0.136C315.03,0.136 314.967,0.198 314.936,0.198C314.905,0.198 314.811,0.261 314.78,0.292L314.874,0.167C254.532,35.517 234.065,100.912 232.162,133.61C208.075,135.264 185.018,144.156 166.048,159.1C164.052,157.416 161.961,155.856 159.809,154.389C154.348,135.233 154.098,114.953 159.122,95.671C136.97,106.403 117.283,121.629 101.308,140.35L101.184,140.35C91.667,128.275 92.322,88.495 92.884,80.195C90.076,81.319 87.393,82.754 84.865,84.439C76.473,90.429 68.61,97.168 61.372,104.562C53.166,112.894 45.647,121.879 38.939,131.457C23.495,153.36 12.543,178.102 6.709,204.247C6.584,204.777 6.491,205.308 6.397,205.839C5.96,207.96 4.338,218.537 4.026,220.846C4.026,221.033 3.995,221.189 3.963,221.376C1.873,232.327 0.563,243.403 0.063,254.51L0.063,255.759C0.063,388.421 107.642,495.969 240.304,495.969C357.305,495.969 457.271,411.697 477.051,296.381C477.457,293.292 477.8,290.204 478.144,287.115C483.105,246.211 477.738,204.715 462.575,166.401L462.606,166.433ZM185.735,354.476C186.859,355.006 187.919,355.599 189.074,356.13L189.23,356.224C188.044,355.662 186.89,355.069 185.704,354.476L185.735,354.476Z" style="fill:url(#_Linear1);fill-rule:nonzero;"/>
    <path d="M462.605,166.433C452.153,141.316 431.031,114.204 414.401,105.624C426.226,128.524 434.431,153.11 438.737,178.538C438.737,178.475 438.737,178.569 438.768,178.756L438.768,179.006C461.482,240.47 449.127,302.965 431.342,341.122C403.824,400.215 337.18,460.743 232.847,457.811C120.12,454.628 20.842,370.981 2.309,261.437C-1.061,244.152 2.309,235.416 3.994,221.345C1.654,232.234 0.375,243.341 0.094,254.479L0.094,255.728C0.094,388.39 107.641,495.969 240.335,495.969C357.336,495.969 457.301,411.697 477.113,296.382C477.519,293.292 477.862,290.203 478.205,287.115C483.166,246.212 477.8,204.715 462.637,166.401L462.605,166.433Z" style="fill:url(#_Radial2);fill-rule:nonzero;"/>
    <path d="M462.605,166.433C452.153,141.316 431.031,114.204 414.401,105.624C426.226,128.524 434.431,153.11 438.737,178.538C438.737,178.475 438.737,178.569 438.768,178.756L438.768,179.006C461.482,240.47 449.127,302.965 431.342,341.122C403.824,400.215 337.18,460.743 232.847,457.811C120.12,454.628 20.842,370.981 2.309,261.437C-1.061,244.152 2.309,235.416 3.994,221.345C1.654,232.234 0.375,243.341 0.094,254.479L0.094,255.728C0.094,388.39 107.641,495.969 240.335,495.969C357.336,495.969 457.301,411.697 477.113,296.382C477.519,293.292 477.862,290.203 478.205,287.115C483.166,246.212 477.8,204.715 462.637,166.401L462.605,166.433Z" style="fill:url(#_Radial3);fill-rule:nonzero;"/>
    <path d="M345.853,194.668C346.384,195.043 346.852,195.417 347.351,195.761C341.329,185.059 333.81,175.262 325.043,166.651C250.381,91.989 305.481,4.753 314.778,0.323L314.872,0.198C254.53,35.548 234.063,100.944 232.16,133.641C234.968,133.453 237.745,133.236 240.584,133.236C284.171,133.329 324.326,156.791 345.822,194.699L345.853,194.668Z" style="fill:url(#_Radial4);fill-rule:nonzero;"/>
    <path d="M240.742,209.582C240.336,215.572 219.245,236.165 211.85,236.165C143.522,236.165 132.446,277.474 132.446,277.474C135.473,312.262 159.684,340.935 189.043,356.098C190.385,356.785 191.726,357.409 193.1,358.032C195.408,359.062 197.78,360.03 200.15,360.934C210.197,364.491 220.742,366.519 231.413,366.955C351.128,372.572 374.341,223.809 287.948,180.597C310.068,176.759 333.032,185.651 345.886,194.637C324.39,156.729 284.204,133.266 240.617,133.173C237.778,133.173 234.97,133.422 232.193,133.578C208.106,135.232 185.049,144.125 166.079,159.069C169.73,162.158 173.88,166.308 182.616,174.888C198.902,190.956 240.711,207.617 240.805,209.551L240.742,209.582Z" style="fill:url(#_Radial5);fill-rule:nonzero;"/>
    <path d="M240.742,209.582C240.336,215.572 219.245,236.165 211.85,236.165C143.522,236.165 132.446,277.474 132.446,277.474C135.473,312.262 159.684,340.935 189.043,356.098C190.385,356.785 191.726,357.409 193.1,358.032C195.408,359.062 197.78,360.03 200.15,360.934C210.197,364.491 220.742,366.519 231.413,366.955C351.128,372.572 374.341,223.809 287.948,180.597C310.068,176.759 333.032,185.651 345.886,194.637C324.39,156.729 284.204,133.266 240.617,133.173C237.778,133.173 234.97,133.422 232.193,133.578C208.106,135.232 185.049,144.125 166.079,159.069C169.73,162.158 173.88,166.308 182.616,174.888C198.902,190.956 240.711,207.617 240.805,209.551L240.742,209.582Z" style="fill:url(#_Radial6);fill-rule:nonzero;"/>
    <path d="M154.845,151.114C156.53,152.174 158.184,153.298 159.807,154.42C154.346,135.264 154.096,114.984 159.12,95.702C136.968,106.434 117.281,121.661 101.306,140.381C102.46,140.381 137.311,139.725 154.845,151.114Z" style="fill:url(#_Radial7);fill-rule:nonzero;"/>
    <path d="M2.306,261.468C20.839,371.012 120.118,454.659 232.844,457.842C337.146,460.807 403.821,400.246 431.34,341.153C449.124,302.964 461.511,240.471 438.828,179.038L438.828,178.788C438.828,178.601 438.797,178.507 438.797,178.57L438.859,178.975C447.377,234.636 419.078,288.518 374.805,324.991L374.68,325.304C288.474,395.504 205.981,367.674 189.288,356.255C188.103,355.693 186.948,355.1 185.795,354.507C135.531,330.483 114.783,284.681 119.213,245.431C94.846,245.774 72.538,231.765 62.304,209.645C62.304,209.645 100.4,182.469 150.631,206.088C179.087,219.005 211.441,220.285 240.832,209.645C240.738,207.679 198.93,191.049 182.643,174.981C173.938,166.401 169.789,162.252 166.108,159.163C164.141,157.478 162.051,155.918 159.898,154.451C158.463,153.485 156.872,152.423 154.938,151.145C137.403,139.757 102.584,140.412 101.429,140.412L101.304,140.412C91.788,128.337 92.444,88.557 93.005,80.258C90.197,81.381 87.514,82.816 84.987,84.501C76.594,90.492 68.731,97.231 61.493,104.625C53.287,112.956 45.768,121.941 39.06,131.52C23.616,153.422 12.665,178.164 6.83,204.31C6.706,204.84 -1.843,242.156 2.369,261.53L2.306,261.468Z" style="fill:url(#_Radial8);fill-rule:nonzero;"/>
    <path d="M325.042,166.651C333.809,175.262 341.329,185.059 347.35,195.761C348.599,196.697 349.815,197.664 350.97,198.725C405.414,248.895 376.897,319.907 374.775,324.96C419.017,288.518 447.316,234.605 438.829,178.944C411.623,111.239 365.571,83.939 327.944,24.503C326.01,21.477 324.107,18.419 322.297,15.299C321.361,13.677 320.487,12.023 319.645,10.338C318.084,7.312 316.868,4.129 316.057,0.822C316.057,0.51 315.838,0.229 315.527,0.167C315.371,0.136 315.215,0.136 315.059,0.167C315.027,0.167 314.965,0.229 314.934,0.229C314.903,0.229 314.809,0.292 314.778,0.323C305.48,4.753 250.38,91.989 325.042,166.651Z" style="fill:url(#_Linear9);fill-rule:nonzero;"/>
    <path d="M350.97,198.725C349.816,197.695 348.6,196.696 347.351,195.761C346.852,195.386 346.384,195.012 345.854,194.668C333.03,185.651 310.067,176.759 287.915,180.629C374.308,223.84 351.126,372.603 231.38,366.988C220.71,366.551 210.195,364.523 200.118,360.965C197.747,360.061 195.375,359.093 193.066,358.063C191.725,357.44 190.352,356.816 189.011,356.129L189.167,356.223C205.858,367.611 288.352,395.473 374.558,325.273L374.683,324.96C376.804,319.906 405.353,248.925 350.877,198.725L350.97,198.725Z" style="fill:url(#_Radial10);fill-rule:nonzero;"/>
    <path d="M132.476,277.474C132.476,277.474 143.552,236.165 211.881,236.165C219.275,236.165 240.398,215.541 240.773,209.582C211.413,220.221 179.027,218.943 150.572,206.025C100.371,182.407 62.245,209.582 62.245,209.582C72.479,231.703 94.787,245.743 119.154,245.369C114.692,284.65 135.472,330.452 185.735,354.444C186.858,354.975 187.919,355.567 189.073,356.098C159.745,340.935 135.503,312.262 132.476,277.474Z" style="fill:url(#_Radial11);fill-rule:nonzero;"/>
    <path d="M462.605,166.433C452.153,141.316 431.03,114.204 414.4,105.624C426.225,128.525 434.431,153.11 438.737,178.539L438.8,178.944C411.623,111.208 365.573,83.908 327.945,24.472C326.01,21.445 324.107,18.388 322.298,15.268C321.361,13.645 320.488,11.992 319.646,10.307C318.086,7.281 316.869,4.098 316.058,0.791C316.058,0.479 315.84,0.198 315.527,0.136C315.371,0.105 315.215,0.105 315.059,0.136C315.028,0.136 314.966,0.198 314.934,0.198C314.903,0.198 314.81,0.261 314.778,0.292L314.872,0.167C254.531,35.517 234.064,100.912 232.16,133.61C234.968,133.423 237.745,133.205 240.585,133.205C284.171,133.298 324.326,156.76 345.822,194.669C332.999,185.652 310.036,176.759 287.884,180.629C374.277,223.841 351.095,372.603 231.349,366.987C220.679,366.55 210.164,364.523 200.087,360.965C197.716,360.061 195.345,359.093 193.036,358.064C191.694,357.44 190.321,356.816 188.979,356.13L189.135,356.224C187.95,355.662 186.795,355.069 185.641,354.476C186.764,355.006 187.825,355.599 188.979,356.13C159.651,340.966 135.409,312.294 132.382,277.505C132.382,277.505 143.458,236.196 211.786,236.196C219.181,236.196 240.304,215.572 240.678,209.614C240.585,207.648 198.776,191.018 182.489,174.95C173.785,166.37 169.635,162.221 165.954,159.132C163.956,157.447 161.897,155.856 159.744,154.42C154.285,135.264 154.035,114.984 159.059,95.702C136.906,106.434 117.219,121.661 101.244,140.38L101.12,140.38C91.604,128.306 92.259,88.526 92.82,80.227C90.013,81.35 87.329,82.785 84.802,84.47C76.409,90.46 68.547,97.199 61.308,104.594C53.103,112.925 45.584,121.91 38.875,131.488C23.431,153.391 12.48,178.133 6.646,204.278C6.521,204.809 6.427,205.339 6.334,205.87C5.897,207.991 3.869,218.724 3.557,221.033C1.716,232.14 0.53,243.31 0,254.542L0,255.79C0,388.453 107.578,496 240.241,496C357.241,496 457.207,411.728 476.988,296.413C477.394,293.323 477.736,290.235 478.08,287.146C483.041,246.243 477.674,204.746 462.511,166.433L462.605,166.433ZM438.768,178.757L438.768,179.007L438.8,179.007L438.8,178.757L438.768,178.757Z" style="fill:url(#_Linear12);fill-rule:nonzero;"/>
    <defs>
        <linearGradient id="_Linear1" x1="0" y1="0" x2="1" y2="0" gradientUnits="userSpaceOnUse" gradientTransform="matrix(-385.3039,369.2577,-369.2577,-385.3039,439.089,76.6073)"><stop offset="0" style="stop-color:rgb(255,244,79);stop-opacity:1"/><stop offset="0.05" style="stop-color:rgb(255,244,79);stop-opacity:1"/><stop offset="0.37" style="stop-color:rgb(255,152,14);stop-opacity:1"/><stop offset="0.53" style="stop-color:rgb(255,54,71);stop-opacity:1"/><stop offset="0.7" style="stop-color:rgb(227,21,135);stop-opacity:1"/><stop offset="1" style="stop-color:rgb(227,21,135);stop-opacity:1"/></linearGradient>
        <radialGradient id="_Radial2" cx="0" cy="0" r="1" gradientUnits="userSpaceOnUse" gradientTransform="matrix(492.797,0,0,501.072,410.922,104.109)"><stop offset="0" style="stop-color:rgb(255,189,79);stop-opacity:1"/><stop offset="0.13" style="stop-color:rgb(255,189,79);stop-opacity:1"/><stop offset="0.28" style="stop-color:rgb(255,152,14);stop-opacity:1"/><stop offset="0.47" style="stop-color:rgb(255,55,80);stop-opacity:1"/><stop offset="0.78" style="stop-color:rgb(235,8,120);stop-opacity:1"/><stop offset="0.86" style="stop-color:rgb(229,0,128);stop-opacity:1"/><stop offset="1" style="stop-color:rgb(229,0,128);stop-opacity:1"/></radialGradient>
        <radialGradient id="_Radial3" cx="0" cy="0" r="1" gradientUnits="userSpaceOnUse" gradientTransform="matrix(505.103,0,0,501.072,237.593,260.61)"><stop offset="0" style="stop-color:rgb(150,14,24);stop-opacity:1"/><stop offset="0.3" style="stop-color:rgb(150,14,24);stop-opacity:1"/><stop offset="0.35" style="stop-color:rgb(177,25,39);stop-opacity:0.74"/><stop offset="0.43" style="stop-color:rgb(219,41,61);stop-opacity:0.34"/><stop offset="0.5" style="stop-color:rgb(245,51,75);stop-opacity:0.09"/><stop offset="0.53" style="stop-color:rgb(255,55,80);stop-opacity:0"/><stop offset="1" style="stop-color:rgb(255,55,80);stop-opacity:0"/></radialGradient>
        <radialGradient id="_Radial4" cx="0" cy="0" r="1" gradientUnits="userSpaceOnUse" gradientTransform="matrix(160.866,0,0,273.19,299.854,-18.2223)"><stop offset="0" style="stop-color:rgb(255,244,79);stop-opacity:1"/><stop offset="0.13" style="stop-color:rgb(255,244,79);stop-opacity:1"/><stop offset="0.53" style="stop-color:rgb(255,152,14);stop-opacity:1"/><stop offset="1" style="stop-color:rgb(255,152,14);stop-opacity:1"/></radialGradient>
        <radialGradient id="_Radial5" cx="0" cy="0" r="1" gradientUnits="userSpaceOnUse" gradientTransform="matrix(212.675,0,0,233.143,189.045,389.124)"><stop offset="0" style="stop-color:rgb(58,142,230);stop-opacity:1"/><stop offset="0.35" style="stop-color:rgb(58,142,230);stop-opacity:1"/><stop offset="0.67" style="stop-color:rgb(144,89,255);stop-opacity:1"/><stop offset="1" style="stop-color:rgb(193,57,230);stop-opacity:1"/></radialGradient>
        <radialGradient id="_Radial6" cx="0" cy="0" r="1" gradientUnits="userSpaceOnUse" gradientTransform="matrix(106.950851,10.9506,-12.719033,124.222553,239.087,218.028)"><stop offset="0" style="stop-color:rgb(144,89,255);stop-opacity:0"/><stop offset="0.21" style="stop-color:rgb(144,89,255);stop-opacity:0"/><stop offset="1" style="stop-color:rgb(110,0,139);stop-opacity:0.6"/></radialGradient>
        <radialGradient id="_Radial7" cx="0" cy="0" r="1" gradientUnits="userSpaceOnUse" gradientTransform="matrix(169.529,0,0,170.248,243.999,35.251)"><stop offset="0" style="stop-color:rgb(255,226,38);stop-opacity:1"/><stop offset="0.1" style="stop-color:rgb(255,226,38);stop-opacity:1"/><stop offset="0.79" style="stop-color:rgb(255,113,57);stop-opacity:1"/><stop offset="1" style="stop-color:rgb(255,113,57);stop-opacity:1"/></radialGradient>
        <radialGradient id="_Radial8" cx="0" cy="0" r="1" gradientUnits="userSpaceOnUse" gradientTransform="matrix(808.652,0,0,678.852,359.502,-82.2582)"><stop offset="0" style="stop-color:rgb(255,244,79);stop-opacity:1"/><stop offset="0.11" style="stop-color:rgb(255,244,79);stop-opacity:1"/><stop offset="0.46" style="stop-color:rgb(255,152,14);stop-opacity:1"/><stop offset="0.72" style="stop-color:rgb(255,54,71);stop-opacity:1"/><stop offset="0.9" style="stop-color:rgb(227,21,135);stop-opacity:1"/><stop offset="1" style="stop-color:rgb(227,21,135);stop-opacity:1"/></radialGradient>
        <linearGradient id="_Linear9" x1="0" y1="0" x2="1" y2="0" gradientUnits="userSpaceOnUse" gradientTransform="matrix(99.84,441.4816,-441.4816,99.84,309.505,-57.5846)"><stop offset="0" style="stop-color:rgb(255,244,79);stop-opacity:0.8"/><stop offset="0.3" style="stop-color:rgb(255,152,14);stop-opacity:0.8"/><stop offset="0.57" style="stop-color:rgb(255,54,71);stop-opacity:0.8"/><stop offset="0.74" style="stop-color:rgb(227,21,135);stop-opacity:0.8"/><stop offset="1" style="stop-color:rgb(227,21,135);stop-opacity:0.8"/></linearGradient>
        <radialGradient id="_Radial10" cx="0" cy="0" r="1" gradientUnits="userSpaceOnUse" gradientTransform="matrix(465.455,0,0,457.371,206.283,89.5511)"><stop offset="0" style="stop-color:rgb(255,244,79);stop-opacity:1"/><stop offset="0.14" style="stop-color:rgb(255,244,79);stop-opacity:1"/><stop offset="0.48" style="stop-color:rgb(255,152,14);stop-opacity:1"/><stop offset="0.66" style="stop-color:rgb(255,54,71);stop-opacity:1"/><stop offset="0.9" style="stop-color:rgb(227,21,135);stop-opacity:1"/><stop offset="1" style="stop-color:rgb(227,21,135);stop-opacity:1"/></radialGradient>
        <radialGradient id="_Radial11" cx="0" cy="0" r="1" gradientUnits="userSpaceOnUse" gradientTransform="matrix(559.357,0,0,500.573,355.264,118.926)"><stop offset="0" style="stop-color:rgb(255,244,79);stop-opacity:1"/><stop offset="0.09" style="stop-color:rgb(255,244,79);stop-opacity:1"/><stop offset="0.63" style="stop-color:rgb(255,152,14);stop-opacity:1"/><stop offset="1" style="stop-color:rgb(255,152,14);stop-opacity:1"/></radialGradient>
        <linearGradient id="_Linear12" x1="0" y1="0" x2="1" y2="0" gradientUnits="userSpaceOnUse" gradientTransform="matrix(-308.11,338.1713,-338.1713,-308.11,413.694,76.5137)"><stop offset="0" style="stop-color:rgb(255,244,79);stop-opacity:0.8"/><stop offset="0.17" style="stop-color:rgb(255,244,79);stop-opacity:0.8"/><stop offset="0.68" style="stop-color:rgb(255,244,79);stop-opacity:0"/><stop offset="1" style="stop-color:rgb(255,244,79);stop-opacity:0"/></linearGradient>
    </defs>
</svg>
