<?xml version="1.0" encoding="UTF-8" standalone="no"?>
<!DOCTYPE svg PUBLIC "-//W3C//DTD SVG 1.1//EN" "http://www.w3.org/Graphics/SVG/1.1/DTD/svg11.dtd">
<svg width="100%" height="100%" viewBox="0 0 42 42" version="1.1" xmlns="http://www.w3.org/2000/svg" xmlns:xlink="http://www.w3.org/1999/xlink" xml:space="preserve" xmlns:serif="http://www.serif.com/" style="fill-rule:evenodd;clip-rule:evenodd;stroke-linecap:round;">
    <g id="Layer-1" serif:id="Layer 1" transform="matrix(1,0,0,1,-3,-3)">
        <g id="g2444" transform="matrix(1,0,0,1,3,3)">
            <path id="rect3404" d="M42,9.8L42,32.2C42,37.6 37.6,42 32.2,42L9.8,42C4.4,42 0,37.6 0,32.2L0,9.8C0,4.4 4.4,0 9.8,0L32.2,0C37.6,0 42,4.4 42,9.8Z"/>
            <g id="g4636" transform="matrix(0.12193,0,0,0.12193,-114.78885,-418.92784)">
                <clipPath id="_clip1">
                    <path d="M1269.5,3525.3L1269.5,3690.8C1269.5,3731.1 1236.8,3763.9 1196.4,3763.9L1030.9,3763.9C990.6,3763.9 957.8,3731.1 957.8,3690.8L957.8,3525.3C957.8,3484.9 990.6,3452.2 1030.9,3452.2L1196.4,3452.2C1236.8,3452.2 1269.5,3484.9 1269.5,3525.3Z"/>
                </clipPath>
                <g clip-path="url(#_clip1)">
                    <rect id="rect4598" x="935.9" y="3451.6" width="373" height="340" style="fill:rgb(255,127,42);stroke:black;stroke-width:1px;"/>
                    <path id="path4600" d="M1007.9,3544.1C996.6,3550.5 997.4,3586.1 997.4,3599.1C997.4,3612.1 1011.4,3627.1 1027.4,3635.1C1043.4,3643.1 1069.4,3661.1 1086.4,3664.1C1103.4,3667.1 1128.9,3670.3 1136.9,3671.1C1144.9,3671.8 1169.5,3668.7 1190.9,3649.6C1222.1,3621.6 1211.7,3591.1 1250.4,3569.6C1281.9,3552.1 1289.3,3546.6 1288.4,3531.6C1287.4,3514.1 1264.9,3513.6 1250.9,3510.1C1238.3,3506.9 1197.4,3502.1 1176.9,3507.1C1156.4,3512.1 1133,3523.3 1120.9,3528.1C1074.4,3546.5 1068.1,3509.6 1007.9,3544.1Z" style="fill:white;"/>
                    <path id="path4602" d="M1125.9,3516.1C1128.6,3524.3 1137.6,3522.1 1151.7,3517.6C1155.7,3516.2 1168.6,3510.4 1186.1,3507.7C1204.9,3504.8 1202.4,3505 1227.5,3507.9C1246.1,3510 1259.3,3517.2 1260.4,3510.4C1261.7,3502.2 1243.8,3491 1227.5,3488.3C1212.7,3485.8 1188.3,3482.4 1160.7,3494.2C1147.2,3500 1122.9,3506.6 1125.9,3516.1Z" style="stroke:black;stroke-width:1px;stroke-linecap:butt;"/>
                    <path id="path4604" d="M1099.2,3561.3C1093.2,3564.6 1076.7,3579.8 1069.4,3580.6C1062.2,3581.3 1059.2,3577.3 1053.2,3579.6C1047.2,3581.8 1015.9,3591.6 1012.2,3594.1C1008.4,3596.6 1007.2,3601.6 1009.7,3603.8C1012.2,3606.1 1042.9,3608.1 1047.2,3610.3C1051.4,3612.6 1076.7,3625.1 1083.9,3624.8C1091.2,3624.6 1117.9,3626.8 1128.2,3622.6C1138.4,3618.3 1155.9,3591.8 1165.2,3585.1C1174.4,3578.3 1185.2,3569.8 1195.4,3566.8C1205.7,3563.8 1217.7,3555.8 1222.2,3549.8C1226.7,3543.8 1227.9,3538.3 1222.2,3537.1C1216.4,3535.8 1208.4,3543.3 1201.4,3544.8C1194.4,3546.3 1171.9,3546.3 1158.4,3544.8C1144.9,3543.3 1099.7,3561.8 1099.2,3561.3Z"/>
                    <g id="g4606" transform="matrix(1,0,0,1,689.40828,2839.6938)">
                        <g id="path4608" transform="matrix(1,0,0,1,12,12)">
                            <path d="M452,741.4C452,763.3 433.9,781.4 412,781.4C390.1,781.4 372,763.3 372,741.4C372,719.4 390.1,701.4 412,701.4C433.9,701.4 452,719.4 452,741.4Z" style="fill:url(#_Radial2);fill-rule:nonzero;"/>
                        </g>
                        <path id="path4610" d="M434,753.4C434,758.8 429.5,763.4 424,763.4C418.5,763.4 414,758.8 414,753.4C414,747.9 418.5,743.4 424,743.4C429.5,743.4 434,747.9 434,753.4Z" style="fill-rule:nonzero;stroke:black;stroke-width:1px;"/>
                    </g>
                    <path id="path4612" d="M1180.8,3543.9C1159.7,3538.8 1132.9,3544.2 1117.4,3547.9C1103.2,3551.4 1089.9,3559 1084.4,3564.2C1081.5,3567 1075.4,3572.4 1072.2,3573.9C1069.7,3575.1 1066.2,3575.4 1062.8,3574.9C1058.3,3574.3 1054.9,3571.3 1053.3,3565.8C1051.3,3558.8 1049.4,3552.8 1052.1,3545C1052.5,3544 1051.9,3542.8 1050.9,3542.5C1049.8,3542.1 1048.7,3542.6 1048.3,3543.7C1044.6,3554 1044.4,3564.1 1047,3572C1049.7,3579.9 1055.5,3585.8 1063.4,3586.7C1068.8,3587.2 1073.2,3586.2 1076.9,3584.2C1080.7,3582.1 1083.8,3579.2 1087.4,3576.1C1094.6,3569.8 1103.2,3562.3 1120.7,3557.6C1157.4,3547.7 1140.7,3548.6 1180.9,3547.9C1182,3547.8 1182.9,3546.9 1182.9,3545.8C1182.8,3544.7 1181.9,3543.8 1180.8,3543.9Z"/>
                    <path id="path4614" d="M1219.6,3534.2C1217.5,3534.5 1215.4,3535.4 1213.3,3536.4C1202.6,3542.9 1192.1,3543.7 1180,3542.9C1172.4,3542.4 1164.3,3541.6 1157.3,3542.4C1143.2,3543.9 1133.6,3549.8 1133.6,3549.8L1136.2,3554.1C1136.2,3554.1 1144.9,3548.7 1157.8,3547.3C1164.1,3546.7 1172,3547.3 1179.6,3547.9C1187.3,3548.4 1194.6,3548.9 1200.6,3547.3C1206.3,3545.8 1211.4,3542.8 1215.4,3540.9C1217.4,3540 1219.1,3539.4 1220.3,3539.2C1221.4,3539 1221.8,3539.1 1222.2,3539.6C1223,3540.4 1223.3,3541 1223.4,3541.7C1223.6,3542.4 1223.5,3543.2 1222.9,3544.5C1221.7,3547 1218.4,3550.8 1212.5,3555.7C1207,3560.2 1199.2,3563 1190.7,3566.3C1182.2,3569.6 1173.4,3574.1 1164.4,3580.4C1154.5,3587.4 1153.8,3594.5 1142.7,3604.4C1135.8,3610.7 1127.2,3619.5 1116.9,3620.7C1087.2,3624.2 1079.5,3617.1 1060.4,3612.7C1048.3,3609.8 1036.4,3606 1026.3,3605.1C1021.3,3604.7 1017,3604.2 1014.2,3603.4C1012.8,3603 1011.9,3602.4 1011.4,3602C1011,3601.6 1010.8,3601.3 1010.8,3600.6C1010.7,3598.5 1011.2,3597.8 1012.9,3596.7C1014.6,3595.6 1017.6,3594.7 1021.6,3593.6C1029.6,3591.6 1041.3,3589 1054.4,3581.7L1052,3577.3C1039.5,3584.3 1028.5,3586.7 1020.4,3588.8C1016.3,3589.8 1012.9,3590.8 1010.2,3592.5C1007.5,3594.2 1005.7,3597.3 1005.8,3600.8C1005.9,3602.7 1006.8,3604.5 1008.1,3605.7C1009.4,3606.9 1011,3607.6 1012.8,3608.2C1016.3,3609.3 1020.8,3609.6 1025.9,3610.1C1036,3611 1048.3,3612.1 1058.1,3617.1C1077.2,3627 1092.7,3637.9 1123.2,3634.3C1135.4,3632.9 1149.9,3622 1155.9,3612.9C1162,3603.7 1166.5,3596.6 1174.3,3590.7C1179.9,3586.5 1184.8,3580.7 1193.3,3574.7C1200.7,3569.5 1209.2,3564.9 1215.7,3559.5C1221.8,3554.5 1225.6,3550.5 1227.4,3546.6C1228.3,3544.7 1228.7,3542.8 1228.4,3540.9C1228.1,3539 1227.1,3537.4 1225.8,3536C1224.1,3534.4 1221.7,3533.9 1219.6,3534.2Z"/>
                    <path id="path4616" d="M1109.1,3449.8C1108.8,3465.5 1097,3483.4 1094.5,3489.9C1090.8,3499.4 1075.8,3514.7 1084.2,3522.1C1088.7,3526 1096.5,3516.4 1099.2,3512.4C1109.3,3497.2 1101.2,3508.7 1118.7,3472.9C1122.8,3464.5 1126,3454.7 1126.3,3446.7C1127.2,3422.9 1109.4,3432.1 1109.1,3449.8Z" style="stroke:black;stroke-width:1px;stroke-linecap:butt;"/>
                    <path id="path4618" d="M989.5,3439.7C992.7,3476.4 995.7,3477.1 1007.3,3505.8C1020.5,3538.5 989.4,3596.5 1016.1,3591.8C1031.1,3595.8 1028.8,3600.1 1017.5,3608.5C1002.2,3609.3 1018.3,3622.2 1033.1,3624.8C1060,3629.5 1075.8,3658.7 1096.2,3659.5C1115.7,3660.4 1138.1,3666.1 1138.1,3671.1C1138.1,3675.7 1125.2,3669.1 1113.9,3670.4C1102.4,3671.7 1080.2,3680.4 1065.6,3667.5C1026,3632.8 990.8,3632.2 987,3598.6C983.4,3567.8 1007,3541.8 993.7,3508.7C980.5,3475.6 951.4,3449 950.5,3442.5L989.5,3439.7Z" style="stroke:black;stroke-width:1px;stroke-linecap:butt;"/>
                    <path id="path4620" d="M1037.2,3422.8C1037.2,3422.8 1049.3,3492.8 1057,3494.9C1064.8,3497 1047.4,3457.6 1052.2,3441.3C1058.9,3418.1 1073.3,3412.9 1073.3,3412.9L1037.2,3422.8Z" style="stroke:black;stroke-width:1px;stroke-linecap:butt;"/>
                    <path id="path4634" d="M1041,3711.4C1067.5,3726.1 1113,3744.4 1158,3730.4C1203,3716.4 1227,3707.4 1254,3672.4C1281,3637.4 1286,3670.4 1281,3682.4C1276,3694.4 1253,3714.4 1235,3727.4C1217,3740.4 1145.9,3762.3 1108,3756.4C1063.5,3749.4 1024,3722.4 1019,3717.4C1014,3712.4 1003,3705.4 1009,3698.4C1015,3691.4 1034,3707.5 1041,3711.4Z" style="stroke:black;stroke-width:1px;stroke-linecap:butt;"/>
                </g>
            </g>
            <path id="rect3419" d="M39,10.8L39,31.2C39,35.5 35.5,39 31.2,39L10.8,39C6.5,39 3,35.5 3,31.2L3,10.8C3,6.5 6.5,3 10.8,3L31.2,3C35.5,3 39,6.5 39,10.8Z" style="fill:none;stroke:url(#_Radial3);stroke-width:2px;stroke-linejoin:round;"/>
            <g id="rect6772" transform="matrix(-1,0,0,-1,0,0)">
                <path d="M-3,-31.2L-3,-10.8C-3,-6.5 -6.5,-3 -10.8,-3L-31.2,-3C-35.5,-3 -39,-6.5 -39,-10.8L-39,-31.2C-39,-35.5 -35.5,-39 -31.2,-39L-10.8,-39C-6.5,-39 -3,-35.5 -3,-31.2Z" style="fill:none;stroke:url(#_Radial4);stroke-width:2px;stroke-linejoin:round;"/>
            </g>
        </g>
    </g>
    <defs>
        <radialGradient id="_Radial2" cx="0" cy="0" r="1" gradientUnits="userSpaceOnUse" gradientTransform="matrix(40,0,0,40,412,741.36218)"><stop offset="0" style="stop-color:rgb(0,179,59);stop-opacity:1"/><stop offset="1" style="stop-color:rgb(250,255,183);stop-opacity:1"/></radialGradient>
        <radialGradient id="_Radial3" cx="0" cy="0" r="1" gradientUnits="userSpaceOnUse" gradientTransform="matrix(17.308021,0,0,17.308088,5.018321,5.018327)"><stop offset="0" style="stop-color:white;stop-opacity:1"/><stop offset="1" style="stop-color:white;stop-opacity:0"/></radialGradient>
        <radialGradient id="_Radial4" cx="0" cy="0" r="1" gradientUnits="userSpaceOnUse" gradientTransform="matrix(17.308021,0,0,17.308088,-36.981519,-36.981673)"><stop offset="0" style="stop-color:black;stop-opacity:1"/><stop offset="1" style="stop-color:black;stop-opacity:0"/></radialGradient>
    </defs>
</svg>
